<svg width="4" height="16" viewBox="0 0 4 16" fill="none" xmlns="http://www.w3.org/2000/svg">
<path d="M3.26758 0.78125L2.94531 10.6543H0.601562L0.269531 0.78125H3.26758ZM0.191406 13.7109C0.191406 13.2943 0.334635 12.9492 0.621094 12.6758C0.914062 12.3958 1.29818 12.2559 1.77344 12.2559C2.25521 12.2559 2.63932 12.3958 2.92578 12.6758C3.21224 12.9492 3.35547 13.2943 3.35547 13.7109C3.35547 14.1146 3.21224 14.4564 2.92578 14.7363C2.63932 15.0163 2.25521 15.1562 1.77344 15.1562C1.29818 15.1562 0.914062 15.0163 0.621094 14.7363C0.334635 14.4564 0.191406 14.1146 0.191406 13.7109Z" fill="white"/>
</svg>
