<svg width="16" height="12" viewBox="0 0 16 12" fill="none" xmlns="http://www.w3.org/2000/svg">
<path d="M15.8773 9.92327C15.8773 10.2713 15.7794 10.594 15.6226 10.8779L10.6095 5.26895L15.5682 0.930465C15.7611 1.23658 15.8773 1.59617 15.8773 1.98475V9.92327ZM7.93868 6.28737L14.8387 0.250066C14.5555 0.0950589 14.2367 0 13.8927 0H1.98465C1.64028 0 1.32134 0.0950589 1.03933 0.250066L7.93868 6.28737ZM9.86234 5.92212L8.26519 7.32049C8.17176 7.40187 8.05544 7.44251 7.93868 7.44251C7.82186 7.44251 7.70553 7.40187 7.61211 7.32049L6.0146 5.92206L0.938057 11.6027C1.24234 11.7936 1.59895 11.908 1.98462 11.908H13.8927C14.2783 11.908 14.6351 11.7936 14.9393 11.6027L9.86234 5.92212ZM0.309162 0.930432C0.116296 1.23655 0 1.59614 0 1.98475V9.9233C0 10.2714 0.0974477 10.594 0.254876 10.8779L5.26741 5.268L0.309162 0.930432Z" fill="white"/>
</svg>
