<svg width="15" height="19" viewBox="0 0 15 19" fill="none" xmlns="http://www.w3.org/2000/svg">
<path d="M11.8749 8.31254V4.75002C11.8749 2.13153 9.74478 0 7.12499 0C4.50595 0 2.37505 2.13153 2.37505 4.75002V8.31254C1.06334 8.31254 0 9.37599 0 10.6874V16.6249C0 17.9367 1.06334 18.9999 2.37505 18.9999H11.8749C13.1864 18.9999 14.25 17.9367 14.25 16.6249V10.6874C14.25 9.37595 13.1864 8.31254 11.8749 8.31254ZM7.71878 14.0678V16.0311C7.71878 16.3593 7.45325 16.6249 7.12503 16.6249C6.79681 16.6249 6.53124 16.3593 6.53124 16.0311V14.0678C6.18273 13.8615 5.93757 13.4973 5.93757 13.0625C5.93757 12.406 6.46929 11.8749 7.12499 11.8749C7.78069 11.8749 8.3125 12.406 8.3125 13.0625C8.31254 13.4973 8.0671 13.8615 7.71878 14.0678ZM9.49989 8.31254H4.75002V4.75002C4.75002 3.4396 5.81512 2.37497 7.12499 2.37497C8.43424 2.37497 9.49985 3.4396 9.49985 4.75002V8.31254H9.49989Z" fill="white"/>
</svg>
